<mxfile host="app.diagrams.net" modified="2023-08-24T00:28:47.825Z" agent="Mozilla/5.0 (Windows NT 10.0; Win64; x64) AppleWebKit/537.36 (KHTML, like Gecko) Chrome/116.0.0.0 Safari/537.36" etag="Q2JyA7Hud090sTw77AbA" version="21.6.9" type="device">
  <diagram name="페이지-1" id="OkGf2fotcT0YHDHY10u9">
    <mxGraphModel dx="1050" dy="566" grid="1" gridSize="10" guides="1" tooltips="1" connect="1" arrows="1" fold="1" page="1" pageScale="1" pageWidth="827" pageHeight="1169" math="0" shadow="0">
      <root>
        <mxCell id="0" />
        <mxCell id="1" parent="0" />
        <mxCell id="CNDWR0Fy0--VmN_JhidH-1" value="Actor" style="rounded=0;whiteSpace=wrap;html=1;" vertex="1" parent="1">
          <mxGeometry x="3" y="30" width="120" height="60" as="geometry" />
        </mxCell>
        <mxCell id="CNDWR0Fy0--VmN_JhidH-2" value="Front" style="rounded=0;whiteSpace=wrap;html=1;" vertex="1" parent="1">
          <mxGeometry x="203" y="30" width="120" height="60" as="geometry" />
        </mxCell>
        <mxCell id="CNDWR0Fy0--VmN_JhidH-3" value="Back" style="rounded=0;whiteSpace=wrap;html=1;" vertex="1" parent="1">
          <mxGeometry x="403" y="30" width="120" height="60" as="geometry" />
        </mxCell>
        <mxCell id="CNDWR0Fy0--VmN_JhidH-4" value="DB" style="rounded=0;whiteSpace=wrap;html=1;" vertex="1" parent="1">
          <mxGeometry x="603" y="30" width="120" height="60" as="geometry" />
        </mxCell>
        <mxCell id="CNDWR0Fy0--VmN_JhidH-5" value="" style="endArrow=none;html=1;rounded=0;entryX=0.5;entryY=1;entryDx=0;entryDy=0;" edge="1" parent="1" target="CNDWR0Fy0--VmN_JhidH-1">
          <mxGeometry width="50" height="50" relative="1" as="geometry">
            <mxPoint x="63" y="1160" as="sourcePoint" />
            <mxPoint x="63" y="200" as="targetPoint" />
          </mxGeometry>
        </mxCell>
        <mxCell id="CNDWR0Fy0--VmN_JhidH-6" value="" style="endArrow=none;html=1;rounded=0;entryX=0.5;entryY=1;entryDx=0;entryDy=0;" edge="1" parent="1" target="CNDWR0Fy0--VmN_JhidH-2">
          <mxGeometry width="50" height="50" relative="1" as="geometry">
            <mxPoint x="263" y="1160" as="sourcePoint" />
            <mxPoint x="262.5" y="200" as="targetPoint" />
          </mxGeometry>
        </mxCell>
        <mxCell id="CNDWR0Fy0--VmN_JhidH-7" value="" style="endArrow=none;html=1;rounded=0;entryX=0.5;entryY=1;entryDx=0;entryDy=0;" edge="1" parent="1" target="CNDWR0Fy0--VmN_JhidH-3">
          <mxGeometry width="50" height="50" relative="1" as="geometry">
            <mxPoint x="463" y="1160" as="sourcePoint" />
            <mxPoint x="463" y="200" as="targetPoint" />
          </mxGeometry>
        </mxCell>
        <mxCell id="CNDWR0Fy0--VmN_JhidH-8" value="" style="endArrow=none;html=1;rounded=0;entryX=0.5;entryY=1;entryDx=0;entryDy=0;" edge="1" parent="1" target="CNDWR0Fy0--VmN_JhidH-4">
          <mxGeometry width="50" height="50" relative="1" as="geometry">
            <mxPoint x="663" y="1160" as="sourcePoint" />
            <mxPoint x="662.5" y="200" as="targetPoint" />
          </mxGeometry>
        </mxCell>
        <mxCell id="CNDWR0Fy0--VmN_JhidH-9" value="1. &amp;lt;마이페이지&amp;gt; 클릭" style="html=1;verticalAlign=bottom;endArrow=block;edgeStyle=elbowEdgeStyle;elbow=vertical;curved=0;rounded=0;" edge="1" parent="1">
          <mxGeometry width="80" relative="1" as="geometry">
            <mxPoint x="63" y="130" as="sourcePoint" />
            <mxPoint x="263" y="130" as="targetPoint" />
          </mxGeometry>
        </mxCell>
        <mxCell id="CNDWR0Fy0--VmN_JhidH-10" value="1.1. 계정 정보 전달" style="html=1;verticalAlign=bottom;endArrow=block;edgeStyle=elbowEdgeStyle;elbow=vertical;curved=0;rounded=0;" edge="1" parent="1">
          <mxGeometry width="80" relative="1" as="geometry">
            <mxPoint x="263" y="150" as="sourcePoint" />
            <mxPoint x="463" y="150" as="targetPoint" />
          </mxGeometry>
        </mxCell>
        <mxCell id="CNDWR0Fy0--VmN_JhidH-11" value="1.1.1. 계정 정보 전달" style="html=1;verticalAlign=bottom;endArrow=block;edgeStyle=elbowEdgeStyle;elbow=vertical;curved=0;rounded=0;" edge="1" parent="1">
          <mxGeometry width="80" relative="1" as="geometry">
            <mxPoint x="463" y="170" as="sourcePoint" />
            <mxPoint x="663" y="170" as="targetPoint" />
          </mxGeometry>
        </mxCell>
        <mxCell id="CNDWR0Fy0--VmN_JhidH-13" value="1.1.1.1. &lt;br&gt;계정 ID, 이메일, 이름 확인" style="html=1;align=left;spacingLeft=2;endArrow=block;rounded=0;edgeStyle=orthogonalEdgeStyle;curved=0;rounded=0;" edge="1" parent="1">
          <mxGeometry relative="1" as="geometry">
            <mxPoint x="663" y="180" as="sourcePoint" />
            <Array as="points">
              <mxPoint x="693" y="210" />
            </Array>
            <mxPoint x="663" y="210" as="targetPoint" />
          </mxGeometry>
        </mxCell>
        <mxCell id="CNDWR0Fy0--VmN_JhidH-14" value="1.1.2. 계정 정보 결과값 전달" style="html=1;verticalAlign=bottom;endArrow=open;dashed=1;endSize=8;edgeStyle=elbowEdgeStyle;elbow=vertical;curved=0;rounded=0;" edge="1" parent="1">
          <mxGeometry relative="1" as="geometry">
            <mxPoint x="661" y="220" as="sourcePoint" />
            <mxPoint x="461" y="220" as="targetPoint" />
          </mxGeometry>
        </mxCell>
        <mxCell id="CNDWR0Fy0--VmN_JhidH-15" value="1.2. 계정 정보 결과값 전달" style="html=1;verticalAlign=bottom;endArrow=open;dashed=1;endSize=8;edgeStyle=elbowEdgeStyle;elbow=vertical;curved=0;rounded=0;" edge="1" parent="1">
          <mxGeometry relative="1" as="geometry">
            <mxPoint x="462" y="240" as="sourcePoint" />
            <mxPoint x="262" y="240" as="targetPoint" />
          </mxGeometry>
        </mxCell>
        <mxCell id="CNDWR0Fy0--VmN_JhidH-16" value="1.3. 결과 및 해당 페이지 클릭" style="html=1;verticalAlign=bottom;endArrow=open;dashed=1;endSize=8;edgeStyle=elbowEdgeStyle;elbow=vertical;curved=0;rounded=0;" edge="1" parent="1">
          <mxGeometry relative="1" as="geometry">
            <mxPoint x="262" y="260" as="sourcePoint" />
            <mxPoint x="62" y="260" as="targetPoint" />
          </mxGeometry>
        </mxCell>
        <mxCell id="CNDWR0Fy0--VmN_JhidH-17" value="2. &amp;lt;코드 전송&amp;gt; 클릭" style="html=1;verticalAlign=bottom;endArrow=block;edgeStyle=elbowEdgeStyle;elbow=vertical;curved=0;rounded=0;" edge="1" parent="1">
          <mxGeometry width="80" relative="1" as="geometry">
            <mxPoint x="62" y="351" as="sourcePoint" />
            <mxPoint x="262" y="351" as="targetPoint" />
          </mxGeometry>
        </mxCell>
        <mxCell id="CNDWR0Fy0--VmN_JhidH-19" value="alt" style="shape=umlFrame;whiteSpace=wrap;html=1;pointerEvents=0;" vertex="1" parent="1">
          <mxGeometry x="10" y="290" width="810" height="550" as="geometry" />
        </mxCell>
        <mxCell id="CNDWR0Fy0--VmN_JhidH-20" value="[ &amp;lt;내 정보 수정하기&amp;gt; 클릭]" style="text;html=1;strokeColor=none;fillColor=none;align=center;verticalAlign=middle;whiteSpace=wrap;rounded=0;" vertex="1" parent="1">
          <mxGeometry x="90" y="290" width="160" height="30" as="geometry" />
        </mxCell>
        <mxCell id="CNDWR0Fy0--VmN_JhidH-21" value="2.1. 이메일 정보 전달" style="html=1;verticalAlign=bottom;endArrow=block;edgeStyle=elbowEdgeStyle;elbow=vertical;curved=0;rounded=0;" edge="1" parent="1">
          <mxGeometry width="80" relative="1" as="geometry">
            <mxPoint x="263" y="402" as="sourcePoint" />
            <mxPoint x="463" y="402" as="targetPoint" />
          </mxGeometry>
        </mxCell>
        <mxCell id="CNDWR0Fy0--VmN_JhidH-22" value="alt" style="shape=umlFrame;whiteSpace=wrap;html=1;pointerEvents=0;" vertex="1" parent="1">
          <mxGeometry x="223" y="360" width="497" height="260" as="geometry" />
        </mxCell>
        <mxCell id="CNDWR0Fy0--VmN_JhidH-23" value="[true]" style="text;html=1;strokeColor=none;fillColor=none;align=center;verticalAlign=middle;whiteSpace=wrap;rounded=0;" vertex="1" parent="1">
          <mxGeometry x="270" y="356" width="100" height="30" as="geometry" />
        </mxCell>
        <mxCell id="CNDWR0Fy0--VmN_JhidH-24" value="2.1.1.&lt;br&gt;인증 코드 생성 및 이메일 발송" style="html=1;align=left;spacingLeft=2;endArrow=block;rounded=0;edgeStyle=orthogonalEdgeStyle;curved=0;rounded=0;" edge="1" parent="1">
          <mxGeometry relative="1" as="geometry">
            <mxPoint x="463" y="420" as="sourcePoint" />
            <Array as="points">
              <mxPoint x="493" y="450" />
            </Array>
            <mxPoint x="463" y="450" as="targetPoint" />
          </mxGeometry>
        </mxCell>
        <mxCell id="CNDWR0Fy0--VmN_JhidH-25" value="2.2. 해당 결과값" style="html=1;verticalAlign=bottom;endArrow=open;dashed=1;endSize=8;edgeStyle=elbowEdgeStyle;elbow=vertical;curved=0;rounded=0;" edge="1" parent="1">
          <mxGeometry relative="1" as="geometry">
            <mxPoint x="462" y="470" as="sourcePoint" />
            <mxPoint x="262" y="470" as="targetPoint" />
          </mxGeometry>
        </mxCell>
        <mxCell id="CNDWR0Fy0--VmN_JhidH-26" value="3. &amp;lt;코드 확인&amp;gt; 클릭" style="html=1;verticalAlign=bottom;endArrow=block;edgeStyle=elbowEdgeStyle;elbow=vertical;curved=0;rounded=0;" edge="1" parent="1">
          <mxGeometry width="80" relative="1" as="geometry">
            <mxPoint x="62" y="510" as="sourcePoint" />
            <mxPoint x="262" y="510" as="targetPoint" />
          </mxGeometry>
        </mxCell>
        <mxCell id="CNDWR0Fy0--VmN_JhidH-27" value="3.1. 코드 정보 전달" style="html=1;verticalAlign=bottom;endArrow=block;edgeStyle=elbowEdgeStyle;elbow=vertical;curved=0;rounded=0;" edge="1" parent="1">
          <mxGeometry width="80" relative="1" as="geometry">
            <mxPoint x="263" y="535" as="sourcePoint" />
            <mxPoint x="463" y="535" as="targetPoint" />
          </mxGeometry>
        </mxCell>
        <mxCell id="CNDWR0Fy0--VmN_JhidH-28" value="3.1.1.&lt;br&gt;입력값과 코드 정보 비교" style="html=1;align=left;spacingLeft=2;endArrow=block;rounded=0;edgeStyle=orthogonalEdgeStyle;curved=0;rounded=0;" edge="1" parent="1">
          <mxGeometry relative="1" as="geometry">
            <mxPoint x="463" y="549" as="sourcePoint" />
            <Array as="points">
              <mxPoint x="493" y="579" />
            </Array>
            <mxPoint x="463" y="579" as="targetPoint" />
          </mxGeometry>
        </mxCell>
        <mxCell id="CNDWR0Fy0--VmN_JhidH-29" value="3.2. 해당 결과값" style="html=1;verticalAlign=bottom;endArrow=open;dashed=1;endSize=8;edgeStyle=elbowEdgeStyle;elbow=vertical;curved=0;rounded=0;" edge="1" parent="1">
          <mxGeometry relative="1" as="geometry">
            <mxPoint x="462" y="600" as="sourcePoint" />
            <mxPoint x="262" y="600" as="targetPoint" />
            <mxPoint as="offset" />
          </mxGeometry>
        </mxCell>
        <mxCell id="CNDWR0Fy0--VmN_JhidH-30" value="4. &amp;lt;회원정보 수정&amp;gt; 클릭" style="html=1;verticalAlign=bottom;endArrow=block;edgeStyle=elbowEdgeStyle;elbow=vertical;curved=0;rounded=0;" edge="1" parent="1">
          <mxGeometry width="80" relative="1" as="geometry">
            <mxPoint x="63" y="663" as="sourcePoint" />
            <mxPoint x="263" y="663" as="targetPoint" />
          </mxGeometry>
        </mxCell>
        <mxCell id="CNDWR0Fy0--VmN_JhidH-31" value="4.1. 회원 정보 수정 요청" style="html=1;verticalAlign=bottom;endArrow=block;edgeStyle=elbowEdgeStyle;elbow=vertical;curved=0;rounded=0;" edge="1" parent="1">
          <mxGeometry width="80" relative="1" as="geometry">
            <mxPoint x="263" y="680" as="sourcePoint" />
            <mxPoint x="463" y="680" as="targetPoint" />
          </mxGeometry>
        </mxCell>
        <mxCell id="CNDWR0Fy0--VmN_JhidH-32" value="alt" style="shape=umlFrame;whiteSpace=wrap;html=1;pointerEvents=0;" vertex="1" parent="1">
          <mxGeometry x="390" y="694" width="400" height="136" as="geometry" />
        </mxCell>
        <mxCell id="CNDWR0Fy0--VmN_JhidH-33" value="[true]" style="text;html=1;strokeColor=none;fillColor=none;align=center;verticalAlign=middle;whiteSpace=wrap;rounded=0;" vertex="1" parent="1">
          <mxGeometry x="450" y="694" width="100" height="30" as="geometry" />
        </mxCell>
        <mxCell id="CNDWR0Fy0--VmN_JhidH-34" value="4.1.1. 회원 정보 전달" style="html=1;verticalAlign=bottom;endArrow=block;edgeStyle=elbowEdgeStyle;elbow=vertical;curved=0;rounded=0;" edge="1" parent="1">
          <mxGeometry width="80" relative="1" as="geometry">
            <mxPoint x="462" y="744" as="sourcePoint" />
            <mxPoint x="662" y="744" as="targetPoint" />
          </mxGeometry>
        </mxCell>
        <mxCell id="CNDWR0Fy0--VmN_JhidH-35" value="4.1.1.1.&lt;br&gt;회원 정보 저장" style="html=1;align=left;spacingLeft=2;endArrow=block;rounded=0;edgeStyle=orthogonalEdgeStyle;curved=0;rounded=0;" edge="1" parent="1">
          <mxGeometry relative="1" as="geometry">
            <mxPoint x="663" y="760" as="sourcePoint" />
            <Array as="points">
              <mxPoint x="693" y="790" />
            </Array>
            <mxPoint x="663" y="790" as="targetPoint" />
          </mxGeometry>
        </mxCell>
        <mxCell id="CNDWR0Fy0--VmN_JhidH-36" value="4.2. 회원 정보 수정 완료" style="html=1;verticalAlign=bottom;endArrow=open;dashed=1;endSize=8;edgeStyle=elbowEdgeStyle;elbow=vertical;curved=0;rounded=0;" edge="1" parent="1">
          <mxGeometry x="0.6733" relative="1" as="geometry">
            <mxPoint x="662" y="810" as="sourcePoint" />
            <mxPoint x="62" y="810" as="targetPoint" />
            <mxPoint as="offset" />
          </mxGeometry>
        </mxCell>
        <mxCell id="CNDWR0Fy0--VmN_JhidH-43" value="alt" style="shape=umlFrame;whiteSpace=wrap;html=1;pointerEvents=0;" vertex="1" parent="1">
          <mxGeometry x="20" y="990" width="660" height="80" as="geometry" />
        </mxCell>
        <mxCell id="CNDWR0Fy0--VmN_JhidH-37" value="alt" style="shape=umlFrame;whiteSpace=wrap;html=1;pointerEvents=0;" vertex="1" parent="1">
          <mxGeometry x="10" y="860" width="810" height="250" as="geometry" />
        </mxCell>
        <mxCell id="CNDWR0Fy0--VmN_JhidH-38" value="[ &amp;lt;회원탈퇴&amp;gt; 클릭 ]" style="text;html=1;strokeColor=none;fillColor=none;align=center;verticalAlign=middle;whiteSpace=wrap;rounded=0;" vertex="1" parent="1">
          <mxGeometry x="90" y="860" width="160" height="30" as="geometry" />
        </mxCell>
        <mxCell id="CNDWR0Fy0--VmN_JhidH-39" value="5. 비밀번호 입력" style="html=1;verticalAlign=bottom;endArrow=block;edgeStyle=elbowEdgeStyle;elbow=vertical;curved=0;rounded=0;" edge="1" parent="1">
          <mxGeometry width="80" relative="1" as="geometry">
            <mxPoint x="63" y="913" as="sourcePoint" />
            <mxPoint x="263" y="913" as="targetPoint" />
          </mxGeometry>
        </mxCell>
        <mxCell id="CNDWR0Fy0--VmN_JhidH-40" value="5.1. 비밀번호 입력값 전달" style="html=1;verticalAlign=bottom;endArrow=block;edgeStyle=elbowEdgeStyle;elbow=vertical;curved=0;rounded=0;" edge="1" parent="1">
          <mxGeometry width="80" relative="1" as="geometry">
            <mxPoint x="264" y="930" as="sourcePoint" />
            <mxPoint x="464" y="930" as="targetPoint" />
          </mxGeometry>
        </mxCell>
        <mxCell id="CNDWR0Fy0--VmN_JhidH-41" value="5.1.1. 비밀번호 입력값 전달" style="html=1;verticalAlign=bottom;endArrow=block;edgeStyle=elbowEdgeStyle;elbow=vertical;curved=0;rounded=0;" edge="1" parent="1">
          <mxGeometry width="80" relative="1" as="geometry">
            <mxPoint x="464" y="940" as="sourcePoint" />
            <mxPoint x="664" y="940" as="targetPoint" />
          </mxGeometry>
        </mxCell>
        <mxCell id="CNDWR0Fy0--VmN_JhidH-42" value="5.1.1.1.&lt;br&gt;회원 비밀번호 확인" style="html=1;align=left;spacingLeft=2;endArrow=block;rounded=0;edgeStyle=orthogonalEdgeStyle;curved=0;rounded=0;" edge="1" parent="1">
          <mxGeometry relative="1" as="geometry">
            <mxPoint x="663" y="950" as="sourcePoint" />
            <Array as="points">
              <mxPoint x="693" y="980" />
            </Array>
            <mxPoint x="663" y="980" as="targetPoint" />
          </mxGeometry>
        </mxCell>
        <mxCell id="CNDWR0Fy0--VmN_JhidH-44" value="[true]" style="text;html=1;strokeColor=none;fillColor=none;align=center;verticalAlign=middle;whiteSpace=wrap;rounded=0;" vertex="1" parent="1">
          <mxGeometry x="70" y="990" width="90" height="30" as="geometry" />
        </mxCell>
        <mxCell id="CNDWR0Fy0--VmN_JhidH-47" value="5.2. 회원탈퇴 및 메인페이지 출력" style="html=1;verticalAlign=bottom;endArrow=open;dashed=1;endSize=8;edgeStyle=elbowEdgeStyle;elbow=vertical;curved=0;rounded=0;" edge="1" parent="1">
          <mxGeometry x="0.6736" relative="1" as="geometry">
            <mxPoint x="662" y="1039.5" as="sourcePoint" />
            <mxPoint x="62" y="1040" as="targetPoint" />
            <mxPoint as="offset" />
          </mxGeometry>
        </mxCell>
      </root>
    </mxGraphModel>
  </diagram>
</mxfile>
